<?xml version="1.0" encoding="UTF-8"?><svg id="Layer_2" xmlns="http://www.w3.org/2000/svg" viewBox="0 0 363.83 338.75"><g id="Layer_2-2"><path d="M331.38,300.4c-21.79,29.72-82.32,10.57-124.37,17.17-31.48,5.28-82.76,34.56-117.32,13.87-39.4-23.55-33.24-58.77-41.38-96.63C41.27,202.23,2.75,204.87.11,162.39c-2.86-43.36,52.61-66.7,68.9-82.76C93.44,55.19,115.89,4.57,172.46.16c44.9-3.52,71.1,50.85,89.81,62.07,17.17,10.34,84.96,12.11,100.15,62.29,8.14,26.85-21.57,57.67-24.21,79.24-4.18,32.8,13.43,68.68-6.82,96.63Z" style="fill: #386055;"/></g></svg>