<?xml version="1.0" encoding="UTF-8"?><svg id="Layer_1" xmlns="http://www.w3.org/2000/svg" viewBox="0 0 602 341"><path d="M164.38,114.44c-.79-.89-3.12-.44-3.71-.62-2.53-1.18-4.38,2.14-3.91,3.91-.1,3.93-1.16,7.19-.39,11.13-.44-.15-.76-.33-1.11-.64-2.59-2.21-7.57-9.68-11.16-6.79-1.82-.11-4.79,1.43-5.32,3.35-.18.58-.05.55.07.78.63.8-.49,1.02-.53,2.01-.82,1.59-.2,1.78-.76,2.94-.49,1.49.86.98,1.11,1.91,2.96,3.73,9.02,2.13,12.85,3.87.06.03.1.06.16.09-2.48,1.74-12.58,6-10.33,9.42,1.16,1.35.87,3.7,3.42,3.57,2.49.43,2.61,4.67,7.81,2,1.35-.69,3.89-5.97,4.77-10.22.03-.07.04-.22.06-.28.75,4.14,6.66,13.64,9.24,11.91,2.57-.62,3.58-2.35,4.54-4.55,1.56-2.4,3.46-3.62,1.28-6.75-.61-.66-.99-.94-1.46-.95-1.26-.21-1.99-1.73-3.13-2.24-.95-.59-2.51-1.18-3.91-1.64,4.34-.57,11.58-1.87,12.95-7.11,1.51-2.84-2.31-2.15-2.2-5.03-1.3-2.83-1.47-3.55-4.42-2.04-2.35,1.13-4.26,2.84-5.95,4.79,2.41-3.28,4.77-8.44,3.59-11.38-.37-1.38-1.01-1.36-1.89-2.1-1.03-.86-1.12,1.3-1.7.65ZM160.1,131.28c.69.53,1.75.6,2.12,1.44.39.89-.85,2.02-1.26,3.07-.3.79-.31,2.35-1.24,2.87-1.07.59-1.79-.02-2.76-.34-.84-.27-1.3.65-2.3.14-1.03-.51-.82-2.09-.98-2.68-.23-.88-1.1-2.07-.44-3.42.52-1.07,2.11-.95,2.61-1.23.47-.26,1.41-1.79,2.75-1.47.73.17,1.04,1.26,1.5,1.61Z" style="fill:#f7e40f;"/><path d="M357.31,171.91c.25-.82-.91-2.08-1.02-2.51-.23-2-2.97-1.88-3.87-.92-2.45,1.42-4.85,2-6.97,3.97-.07-.33-.08-.59-.02-.92.37-2.42,3.08-8.3-.05-9.41-.62-1.15-2.68-2.4-4.07-2-.42.11-.36.17-.45.34-.25.69-.81.09-1.44.43-1.29.1-1.17.55-2.09.65-1.1.26-.27.9-.75,1.4-1.17,3.23,2.1,6.33,2.48,9.35,0,.05,0,.09,0,.13-2-.86-8.43-5.45-9.68-2.78-.39,1.22-1.94,1.93-.9,3.45.68,1.69-1.88,3.36,1.72,5.55.94.57,5.13.13,8.07-.93.05,0,.15-.06.2-.07-2.26,2.03-5.85,9.24-3.82,10.17,1.35,1.34,2.79,1.31,4.5,1.07,2.06.05,3.53.76,4.63-1.77.17-.62.21-.96.03-1.25-.35-.85.31-1.87.19-2.77,0-.8-.23-1.98-.47-3.02,1.99,2.45,5.52,6.4,9.25,5.25,2.31-.15.45-2.23,2.25-3.25,1.25-1.87,1.63-2.24-.42-3.48-1.59-1.02-3.35-1.54-5.18-1.84,2.92.24,6.98-.26,8.34-2.09.71-.75.45-1.14.57-1.96.14-.96-1.22-.2-1.04-.8ZM345.36,175.64c-.06.62.29,1.3-.08,1.85-.4.58-1.56.24-2.36.39-.6.11-1.56.7-2.23.32-.76-.43-.66-1.1-.84-1.82-.15-.62-.89-.55-.96-1.36-.07-.82.97-1.3,1.27-1.61.45-.48.85-1.45,1.93-1.56.85-.09,1.38.93,1.74,1.14.33.19,1.63.19,1.94,1.13.17.51-.38,1.11-.42,1.52Z" style="fill:#f7e40f;"/><path d="M283.55,153.19c.82.1,1.82-1.21,2.2-1.39,1.85-.56,1.27-3.12.22-3.82-1.76-2.08-2.71-4.25-4.92-5.92.3-.13.54-.18.87-.18,2.36-.06,8.37,1.51,8.89-1.63.99-.78,1.82-2.94,1.21-4.18-.18-.38-.22-.31-.4-.37-.7-.12-.22-.75-.65-1.29-.31-1.2-.71-1.01-.96-1.87-.43-1-.89-.11-1.45-.48-3.25-.56-5.63,3.05-8.42,3.92-.05,0-.08.01-.12.03.48-2.04,3.73-8.89.99-9.62-1.22-.16-2.15-1.51-3.41-.27-1.48.92-3.5-1.21-4.96,2.57-.38.98.74,4.87,2.24,7.47.02.05.08.13.1.17-2.3-1.79-9.72-3.98-10.26-1.9-1.04,1.5-.77,2.86-.25,4.44.3,1.96-.12,3.46,2.45,4.08.62.06.94.03,1.19-.18.75-.47,1.82-.02,2.65-.29.76-.13,1.84-.55,2.77-.96-1.98,2.29-5.12,6.3-3.41,9.63.53,2.16,2.18.05,3.45,1.58,1.97.86,2.39,1.16,3.22-.98.69-1.67.89-3.43.87-5.21.27,2.8,1.42,6.55,3.38,7.53.82.54,1.15.24,1.95.21.93-.03-.02-1.19.58-1.12ZM278.01,142.52c-.6.05-1.18.49-1.76.23-.61-.28-.49-1.44-.77-2.17-.21-.55-.92-1.36-.68-2.05.28-.79.93-.81,1.58-1.1.56-.25.37-.93,1.12-1.13.77-.21,1.39.7,1.74.93.53.35,1.52.56,1.8,1.57.23.79-.65,1.46-.78,1.84-.12.35.1,1.57-.75,2.02-.46.25-1.11-.17-1.51-.14Z" style="fill:#f7e40f;"/><path d="M231.04,233.03c.8.42,2.34-.54,2.8-.58,2.12.14,2.52-2.72,1.7-3.85-1.01-2.82-1.15-5.42-2.78-8,.35-.01.63.03.96.15,2.45.85,8.03,4.79,9.78,1.76,1.32-.42,3.01-2.32,2.86-3.84-.03-.46-.11-.4-.27-.53-.67-.4.06-.86-.17-1.58.14-1.35-.34-1.32-.27-2.29-.06-1.2-.88-.46-1.31-1.05-3.12-1.83-6.98.96-10.18.78-.05,0-.09-.02-.14-.02,1.28-1.91,7.28-7.71,4.75-9.52-1.19-.64-1.63-2.39-3.41-1.6-1.88.38-3.13-2.6-6.1.72-.77.86-1.12,5.3-.58,8.56,0,.05.03.17.04.22-1.67-2.73-8.47-7.86-9.83-5.92-1.65,1.14-1.9,2.65-1.97,4.47-.45,2.13-1.46,3.52.94,5.14.61.3.96.4,1.29.28.95-.2,1.89.68,2.84.73.83.16,2.1.15,3.22.09-2.92,1.59-7.71,4.5-7.24,8.6-.29,2.43,2.23.89,2.94,2.96,1.7,1.65,2.02,2.12,3.69.23,1.36-1.45,2.25-3.19,2.91-5.03-.81,2.99-1.07,7.3.57,9.06.64.88,1.09.69,1.92.97.97.33.44-1.23,1.03-.93ZM229.46,219.91c-.64-.18-1.41.05-1.9-.44-.52-.52.05-1.67.05-2.53,0-.64-.43-1.76.1-2.38.6-.71,1.27-.48,2.05-.52.67-.04.74-.81,1.59-.73.87.08,1.16,1.26,1.43,1.63.41.56,1.34,1.17,1.25,2.31-.07.9-1.24,1.25-1.52,1.59-.26.31-.51,1.65-1.55,1.79-.56.08-1.08-.61-1.5-.73Z" style="fill:#f7e40f;"/></svg>